<svg width="38" height="27" viewBox="0 0 38 27" fill="none" xmlns="http://www.w3.org/2000/svg">
<path d="M0.182373 0.925737C0.182373 0.516014 0.515727 0.183868 0.926939 0.183868L15.8183 0.183868C16.2295 0.183868 16.5628 0.516014 16.5628 0.925737V2.40947C16.5628 2.8192 16.2295 3.15134 15.8183 3.15134H0.92694C0.515727 3.15134 0.182373 2.8192 0.182373 2.40947L0.182373 0.925737Z" fill="url(#paint0_linear)"/>
<path d="M0.182373 6.86068C0.182373 6.45096 0.515727 6.11882 0.926939 6.11882H9.86173C10.2729 6.11882 10.6063 6.45096 10.6063 6.86068V11.3119C10.6063 11.7216 10.2729 12.0538 9.86173 12.0538H0.92694C0.515727 12.0538 0.182373 11.7216 0.182373 11.3119L0.182373 6.86068Z" fill="url(#paint1_linear)"/>
<path d="M0.182373 15.7631C0.182373 15.3534 0.515727 15.0212 0.926939 15.0212H9.86173C10.2729 15.0212 10.6063 15.3534 10.6063 15.7631V20.2143C10.6063 20.624 10.2729 20.9562 9.86173 20.9562H0.92694C0.515727 20.9562 0.182373 20.624 0.182373 20.2143L0.182373 15.7631Z" fill="url(#paint2_linear)"/>
<path d="M26.9868 6.86068C26.9868 6.45096 27.3201 6.11882 27.7313 6.11882L36.6661 6.11882C37.0773 6.11882 37.4107 6.45096 37.4107 6.86068V11.3119C37.4107 11.7216 37.0773 12.0538 36.6661 12.0538H27.7313C27.3201 12.0538 26.9868 11.7216 26.9868 11.3119V6.86068Z" fill="url(#paint3_linear)"/>
<path d="M16.5628 12.0538C16.5628 11.644 16.8962 11.3119 17.3074 11.3119H20.2857C20.6969 11.3119 21.0302 11.644 21.0302 12.0538V15.0212C21.0302 15.431 20.6969 15.7631 20.2857 15.7631H17.3074C16.8962 15.7631 16.5628 15.431 16.5628 15.0212V12.0538Z" fill="url(#paint4_linear)"/>
<path d="M26.9868 15.7631C26.9868 15.3534 27.3201 15.0212 27.7313 15.0212H36.6661C37.0773 15.0212 37.4107 15.3534 37.4107 15.7631V20.2143C37.4107 20.624 37.0773 20.9562 36.6661 20.9562H27.7313C27.3201 20.9562 26.9868 20.624 26.9868 20.2143V15.7631Z" fill="url(#paint5_linear)"/>
<path d="M21.0302 0.925737C21.0302 0.516014 21.3636 0.183868 21.7748 0.183868L36.6661 0.183868C37.0773 0.183868 37.4107 0.516014 37.4107 0.925737V2.40947C37.4107 2.8192 37.0773 3.15134 36.6661 3.15134H21.7748C21.3636 3.15134 21.0302 2.8192 21.0302 2.40947V0.925737Z" fill="url(#paint6_linear)"/>
<path d="M13.5846 0.925737C13.5846 0.516014 13.9179 0.183868 14.3291 0.183868L15.8183 0.183868C16.2295 0.183868 16.5628 0.516014 16.5628 0.925737V7.29526C16.5628 7.9562 15.7608 8.28719 15.2918 7.81984L13.8026 6.3361C13.663 6.19698 13.5846 6.00828 13.5846 5.81152V0.925737Z" fill="url(#paint7_linear)"/>
<path d="M24.2266 6.6434C24.6956 6.17605 24.3634 5.37695 23.7001 5.37695H21.7748C21.3636 5.37695 21.0302 5.70909 21.0302 6.11882V8.03713C21.0302 8.69806 21.8322 9.02906 22.3013 8.56171L24.2266 6.6434Z" fill="url(#paint8_linear)"/>
<path d="M37.4107 26.1493C37.4107 26.559 37.0773 26.8911 36.6661 26.8911H21.7748C21.3636 26.8911 21.0302 26.559 21.0302 26.1493V24.6655C21.0302 24.2558 21.3636 23.9237 21.7748 23.9237H36.6661C37.0773 23.9237 37.4107 24.2558 37.4107 24.6655V26.1493Z" fill="url(#paint9_linear)"/>
<path d="M16.5628 26.1493C16.5628 26.559 16.2295 26.8911 15.8183 26.8911H0.92694C0.515727 26.8911 0.182373 26.559 0.182373 26.1493L0.182373 24.6655C0.182373 24.2558 0.515727 23.9237 0.926939 23.9237H15.8183C16.2295 23.9237 16.5628 24.2558 16.5628 24.6655V26.1493Z" fill="url(#paint10_linear)"/>
<path d="M24.0085 26.1493C24.0085 26.559 23.6751 26.8911 23.2639 26.8911H21.7748C21.3636 26.8911 21.0302 26.559 21.0302 26.1493V19.7797C21.0302 19.1188 21.8322 18.7878 22.3013 19.2552L23.7904 20.7389C23.93 20.878 24.0085 21.0667 24.0085 21.2635V26.1493Z" fill="url(#paint11_linear)"/>
<path d="M13.3665 20.4316C12.8974 20.899 13.2296 21.6981 13.893 21.6981H15.8183C16.2295 21.6981 16.5628 21.3659 16.5628 20.9562V19.0379C16.5628 18.3769 15.7608 18.0459 15.2918 18.5133L13.3665 20.4316Z" fill="url(#paint12_linear)"/>
<defs>
<linearGradient id="paint0_linear" x1="-37.2484" y1="-27.7374" x2="35.3873" y2="32.354" gradientUnits="userSpaceOnUse">
<stop stop-color="white"/>
<stop offset="1" stop-color="white" stop-opacity="0"/>
</linearGradient>
<linearGradient id="paint1_linear" x1="-37.2484" y1="-27.7374" x2="35.3873" y2="32.354" gradientUnits="userSpaceOnUse">
<stop stop-color="white"/>
<stop offset="1" stop-color="white" stop-opacity="0"/>
</linearGradient>
<linearGradient id="paint2_linear" x1="-37.2484" y1="-27.7374" x2="35.3873" y2="32.354" gradientUnits="userSpaceOnUse">
<stop stop-color="white"/>
<stop offset="1" stop-color="white" stop-opacity="0"/>
</linearGradient>
<linearGradient id="paint3_linear" x1="-37.2484" y1="-27.7374" x2="35.3873" y2="32.354" gradientUnits="userSpaceOnUse">
<stop stop-color="white"/>
<stop offset="1" stop-color="white" stop-opacity="0"/>
</linearGradient>
<linearGradient id="paint4_linear" x1="-37.2484" y1="-27.7374" x2="35.3873" y2="32.354" gradientUnits="userSpaceOnUse">
<stop stop-color="white"/>
<stop offset="1" stop-color="white" stop-opacity="0"/>
</linearGradient>
<linearGradient id="paint5_linear" x1="-37.2484" y1="-27.7374" x2="35.3873" y2="32.354" gradientUnits="userSpaceOnUse">
<stop stop-color="white"/>
<stop offset="1" stop-color="white" stop-opacity="0"/>
</linearGradient>
<linearGradient id="paint6_linear" x1="-37.2484" y1="-27.7374" x2="35.3873" y2="32.354" gradientUnits="userSpaceOnUse">
<stop stop-color="white"/>
<stop offset="1" stop-color="white" stop-opacity="0"/>
</linearGradient>
<linearGradient id="paint7_linear" x1="-37.2484" y1="-27.7374" x2="35.3873" y2="32.354" gradientUnits="userSpaceOnUse">
<stop stop-color="white"/>
<stop offset="1" stop-color="white" stop-opacity="0"/>
</linearGradient>
<linearGradient id="paint8_linear" x1="-37.2484" y1="-27.7374" x2="35.3873" y2="32.354" gradientUnits="userSpaceOnUse">
<stop stop-color="white"/>
<stop offset="1" stop-color="white" stop-opacity="0"/>
</linearGradient>
<linearGradient id="paint9_linear" x1="-37.2484" y1="-27.7374" x2="35.3873" y2="32.354" gradientUnits="userSpaceOnUse">
<stop stop-color="white"/>
<stop offset="1" stop-color="white" stop-opacity="0"/>
</linearGradient>
<linearGradient id="paint10_linear" x1="-37.2484" y1="-27.7374" x2="35.3873" y2="32.354" gradientUnits="userSpaceOnUse">
<stop stop-color="white"/>
<stop offset="1" stop-color="white" stop-opacity="0"/>
</linearGradient>
<linearGradient id="paint11_linear" x1="-37.2484" y1="-27.7374" x2="35.3873" y2="32.354" gradientUnits="userSpaceOnUse">
<stop stop-color="white"/>
<stop offset="1" stop-color="white" stop-opacity="0"/>
</linearGradient>
<linearGradient id="paint12_linear" x1="-37.2484" y1="-27.7374" x2="35.3873" y2="32.354" gradientUnits="userSpaceOnUse">
<stop stop-color="white"/>
<stop offset="1" stop-color="white" stop-opacity="0"/>
</linearGradient>
</defs>
</svg>
