<svg width="52" height="23" viewBox="0 0 52 23" fill="none" xmlns="http://www.w3.org/2000/svg">
<path d="M22.8556 18.9195L18.98 18.9195L21.4022 4.0298L25.2781 4.0298L22.8556 18.9195ZM15.7196 4.0298L12.0248 14.271L11.5876 12.0657L11.588 12.0665L10.2839 5.37044C10.2839 5.37044 10.1262 4.0298 8.44549 4.0298L2.33726 4.0298L2.26559 4.28192C2.26559 4.28192 4.1335 4.67064 6.31955 5.98381L9.68664 18.9198L13.7247 18.9198L19.8906 4.0298L15.7196 4.0298ZM46.203 18.9195L49.7616 18.9195L46.6589 4.0294L43.5435 4.0294C42.1048 4.0294 41.7544 5.13903 41.7544 5.13903L35.9743 18.9195L40.0143 18.9195L40.8222 16.7077L45.749 16.7078L46.203 18.9195ZM41.9384 13.6525L43.9747 8.0804L45.1203 13.6525L41.9384 13.6525ZM36.2773 7.61042L36.8304 4.41295C36.8304 4.41295 35.1238 3.76374 33.3447 3.76374C31.4214 3.76374 26.8542 4.60453 26.8542 8.69297C26.8542 12.5397 32.2146 12.5874 32.2146 14.608C32.2146 16.6285 27.4065 16.2664 25.8197 14.9923L25.2435 18.3356C25.2435 18.3356 26.974 19.1763 29.618 19.1763C32.2628 19.1763 36.2526 17.8066 36.2526 14.0786C36.2526 10.2073 30.844 9.84682 30.844 8.16365C30.8444 6.48008 34.6189 6.69635 36.2773 7.61042Z" fill="url(#paint0_linear)"/>
<path d="M11.588 12.0665L10.2839 5.37044C10.2839 5.37044 10.1262 4.0298 8.44549 4.0298L2.33726 4.0298L2.26559 4.28192C2.26559 4.28192 5.20144 4.89022 8.01743 7.17042C10.71 9.34986 11.588 12.0665 11.588 12.0665Z" fill="url(#paint1_linear)"/>
<defs>
<linearGradient id="paint0_linear" x1="-21.4285" y1="-18.0493" x2="8.37031" y2="44.7336" gradientUnits="userSpaceOnUse">
<stop stop-color="white"/>
<stop offset="1" stop-color="white" stop-opacity="0.1"/>
</linearGradient>
<linearGradient id="paint1_linear" x1="-21.4285" y1="-18.0493" x2="8.37031" y2="44.7336" gradientUnits="userSpaceOnUse">
<stop stop-color="white"/>
<stop offset="1" stop-color="white" stop-opacity="0.1"/>
</linearGradient>
</defs>
</svg>
